<svg width="137" height="29" viewBox="0 0 137 29" fill="none" xmlns="http://www.w3.org/2000/svg">
<g clip-path="url(#clip0_669_7219)">
<path d="M107.634 20.603L103.277 16.3761L102.538 15.6597H101.578H97.2461L97.2215 15.6836L101.209 19.5522C101.209 20.3642 101.209 21.2 101.209 22.0358C100.742 22.0358 100.446 22.0597 100.175 22.0358C95.5969 21.5821 92.2 17.3313 92.8154 12.7701C93.4308 8.32835 98.0092 5.08059 102.538 5.86865C107.215 6.68059 110.612 11.1224 109.283 15.4209C108.545 17.7851 109.234 19.0746 110.957 20.3403C111.031 20.3881 111.105 20.4119 111.252 20.5075C113.123 17.8089 113.738 14.8239 113.098 11.6716C111.843 5.29551 105.566 1.14029 99.0431 2.28656C92.4708 3.43283 88.1631 9.33133 89.1477 15.803C90.0831 22.0119 96.0892 26.406 102.662 25.6657C104.828 25.4269 104.828 25.4269 105.049 23.3492C105.049 23.2776 105.123 23.2298 105.123 23.2298C106.305 24.0657 107.289 25.4985 108.668 25.6657C110.292 25.8806 111.597 25.7612 112.877 25.7612C111.129 24.0657 109.382 22.3463 107.609 20.6269L107.634 20.603Z" fill="url(#paint0_linear_669_7219)"/>
<path d="M127.646 6.13134C127.326 5.41493 126.982 4.72239 126.637 4.02985L125.652 2L114.132 25.9761H115.191C115.462 25.9761 115.757 25.9761 116.028 25.9761C116.742 25.9761 117.431 25.9761 118.12 25.9522C118.317 25.9522 118.514 25.7373 118.563 25.594C121.788 18.8836 124.766 12.7224 127.622 6.72836C127.72 6.58507 127.72 6.32239 127.646 6.13134Z" fill="url(#paint1_linear_669_7219)"/>
<path d="M129.615 10.3105L129.418 10.6925C129.369 10.7881 129.32 10.8597 129.295 10.9552C129.148 11.2896 128.975 11.6 128.828 11.9343C128.532 12.5552 128.212 13.1761 127.942 13.797C127.597 14.5612 127.72 15.206 127.942 15.6597C128.163 16.1134 128.631 17.1164 128.631 17.1164C130.157 20.2687 130.723 21.6299 132.225 24.8537C132.52 25.5224 132.865 25.8567 133.652 25.8567C133.726 25.8567 133.825 25.8567 133.898 25.8567C134.538 25.8567 135.203 25.8328 135.868 25.8567C136.188 25.8567 136.483 25.8567 136.803 25.8567H137L129.615 10.3105Z" fill="url(#paint2_linear_669_7219)"/>
</g>
<path d="M4.22727 5.54545V23H2.11364V5.54545H4.22727ZM22.3061 5.54545V23H20.2607L10.7493 9.29545H10.5788V23H8.4652V5.54545H10.5107L20.0561 19.2841H20.2266V5.54545H22.3061ZM25.581 7.42045V5.54545H38.6719V7.42045H33.1832V23H31.0696V7.42045H25.581ZM41.9339 23V5.54545H52.468V7.42045H44.0476V13.3182H51.9226V15.1932H44.0476V21.125H52.6044V23H41.9339ZM56.2777 23V5.54545H58.3913V21.125H66.505V23H56.2777ZM69.7777 23V5.54545H71.8913V21.125H80.005V23H69.7777Z" fill="#111727"/>
<defs>
<linearGradient id="paint0_linear_669_7219" x1="113.343" y1="13.9454" x2="89.0078" y2="13.9454" gradientUnits="userSpaceOnUse">
<stop stop-color="#D683F5"/>
<stop offset="1" stop-color="#8B56FF"/>
</linearGradient>
<linearGradient id="paint1_linear_669_7219" x1="127.699" y1="13.9881" x2="114.132" y2="13.9881" gradientUnits="userSpaceOnUse">
<stop stop-color="#D683F5"/>
<stop offset="1" stop-color="#8B56FF"/>
</linearGradient>
<linearGradient id="paint2_linear_669_7219" x1="137" y1="18.0836" x2="127.727" y2="18.0836" gradientUnits="userSpaceOnUse">
<stop stop-color="#D683F5"/>
<stop offset="1" stop-color="#8B56FF"/>
</linearGradient>
<clipPath id="clip0_669_7219">
<rect width="48" height="24" fill="white" transform="translate(89 2)"/>
</clipPath>
</defs>
</svg>
